<svg width="24" height="24" viewBox="0 0 24 24" fill="none" xmlns="http://www.w3.org/2000/svg">
<path d="M24 20.994V24.001H0V21.005C1.39595 19.1395 3.20791 17.6253 5.29179 16.5831C7.37567 15.5408 9.67399 14.9991 12.004 15.001C16.908 15.001 21.264 17.355 24 20.994ZM16.002 9C16.002 10.0609 15.5806 11.0783 14.8304 11.8284C14.0803 12.5786 13.0629 13 12.002 13C10.9411 13 9.92372 12.5786 9.17357 11.8284C8.42343 11.0783 8.002 10.0609 8.002 9C8.002 7.93913 8.42343 6.92172 9.17357 6.17157C9.92372 5.42143 10.9411 5 12.002 5C13.0629 5 14.0803 5.42143 14.8304 6.17157C15.5806 6.92172 16.002 7.93913 16.002 9Z" fill="#D1D5DB"/>
</svg>
